<svg width="612" height="77" viewBox="0 0 612 77" fill="none" xmlns="http://www.w3.org/2000/svg">
<g clip-path="url(#clip0_26_2)">
<path d="M600.084 64.9253L568.558 46.7975L600.084 28.529V16.595L547.803 46.7975L600.084 77V64.9253Z" fill="#41B883"/>
<path d="M612 30.1869L583.206 46.8757L612 63.4237V53.2259L600.932 46.8757L612 40.4004V30.2025V30.1869Z" fill="#35495E"/>
<path d="M28.2756 57.8243L39.5325 20.9431H56.457L38.041 72.6518H18.416L0 20.9431H17.0188L28.2756 57.8243Z" fill="#35495E"/>
<path d="M95.8011 34.0032V46.2344H65.8613V34.0032H95.8011Z" fill="#35495E"/>
<path d="M141.284 34.0971H132.727V72.6518H116.823V34.0971H111.061V20.9431H116.823V19.4572C116.823 13.0914 118.645 8.25838 122.318 4.95816C125.976 1.65793 131.346 0 138.411 0C139.588 0 140.452 0.0312817 141.017 0.0938452V13.5294C137.971 13.3417 135.836 13.7796 134.596 14.8275C133.355 15.8755 132.743 17.768 132.743 20.4739V20.9431H141.3V34.0971H141.284Z" fill="#41B883"/>
<path d="M197.38 50.5982H161.38C161.631 53.8046 162.667 56.2602 164.488 57.9651C166.31 59.6699 168.57 60.5145 171.239 60.5145C175.212 60.5145 177.975 58.8409 179.513 55.5094H196.438C195.574 58.9035 194.004 61.9691 191.744 64.6906C189.483 67.4121 186.641 69.5393 183.234 71.0877C179.827 72.6362 176.012 73.4026 171.789 73.4026C166.702 73.4026 162.181 72.3234 158.208 70.1649C154.236 68.0065 151.143 64.9096 148.898 60.9055C146.669 56.8858 145.554 52.1936 145.554 46.8131C145.554 41.4327 146.653 36.7404 148.851 32.7207C151.049 28.701 154.142 25.6197 158.114 23.4613C162.086 21.3029 166.639 20.2236 171.789 20.2236C176.939 20.2236 181.272 21.2716 185.181 23.3674C189.09 25.4633 192.136 28.4664 194.35 32.3609C196.548 36.2555 197.647 40.7914 197.647 45.9841C197.647 47.47 197.553 49.0185 197.364 50.6138L197.38 50.5982ZM181.382 41.7924C181.382 39.0709 180.455 36.9124 178.587 35.3014C176.734 33.6904 174.395 32.8927 171.616 32.8927C168.837 32.8927 166.702 33.6591 164.865 35.2076C163.028 36.756 161.898 38.9458 161.474 41.7924H181.382Z" fill="#41B883"/>
<path d="M254.669 50.5982H218.669C218.92 53.8046 219.956 56.2602 221.778 57.9651C223.599 59.6699 225.86 60.5145 228.529 60.5145C232.501 60.5145 235.264 58.8409 236.802 55.5094H253.727C252.863 58.9035 251.293 61.9691 249.033 64.6906C246.772 67.4121 243.93 69.5393 240.523 71.0877C237.116 72.6362 233.301 73.4026 229.078 73.4026C223.991 73.4026 219.47 72.3234 215.498 70.1649C211.526 68.0065 208.433 64.9096 206.188 60.9055C203.958 56.8858 202.843 52.1936 202.843 46.8131C202.843 41.4327 203.942 36.7404 206.14 32.7207C208.338 28.701 211.431 25.6197 215.403 23.4613C219.375 21.3029 223.928 20.2236 229.078 20.2236C234.228 20.2236 238.561 21.2716 242.47 23.3674C246.379 25.4633 249.425 28.4664 251.639 32.3609C253.837 36.2555 254.936 40.7914 254.936 45.9841C254.936 47.47 254.842 49.0185 254.653 50.6138L254.669 50.5982ZM238.671 41.7924C238.671 39.0709 237.744 36.9124 235.876 35.3014C234.024 33.6904 231.684 32.8927 228.905 32.8927C226.126 32.8927 223.991 33.6591 222.154 35.2076C220.317 36.756 219.187 38.9458 218.763 41.7924H238.671Z" fill="#41B883"/>
<path d="M263.194 32.7051C265.204 28.6854 267.951 25.6041 271.421 23.4457C274.891 21.2872 278.768 20.208 283.055 20.208C286.461 20.208 289.586 20.9118 292.396 22.3352C295.222 23.7585 297.436 25.6667 299.053 28.0754V4.08228H314.957V72.6518H299.053V65.2381C297.561 67.7093 295.442 69.6801 292.679 71.166C289.915 72.6518 286.713 73.387 283.055 73.387C278.768 73.387 274.906 72.2921 271.421 70.1024C267.951 67.9127 265.204 64.7845 263.194 60.7491C261.184 56.6982 260.164 52.0215 260.164 46.7036C260.164 41.3857 261.169 36.7248 263.194 32.7051ZM295.756 37.4286C293.558 35.145 290.873 34.0033 287.717 34.0033C284.562 34.0033 281.877 35.1294 279.679 37.3817C277.481 39.634 276.382 42.7465 276.382 46.688C276.382 50.6295 277.481 53.7733 279.679 56.0882C281.877 58.403 284.562 59.5604 287.717 59.5604C290.873 59.5604 293.558 58.4187 295.756 56.1351C297.954 53.8515 299.053 50.7233 299.053 46.7818C299.053 42.8403 297.954 39.7122 295.756 37.4286Z" fill="#41B883"/>
<path d="M348.806 22.429C351.601 20.9431 354.788 20.208 358.383 20.208C362.669 20.208 366.531 21.2872 370.017 23.4457C373.486 25.6041 376.234 28.701 378.243 32.7051C380.253 36.7248 381.273 41.3857 381.273 46.7036C381.273 52.0215 380.269 56.6982 378.243 60.7491C376.234 64.8001 373.486 67.9127 370.017 70.1024C366.547 72.2921 362.669 73.387 358.383 73.387C354.725 73.387 351.522 72.6675 348.806 71.2129C346.074 69.7583 343.939 67.8345 342.385 65.4258V72.6518H326.481V4.08228H342.385V28.2631C343.876 25.8544 346.011 23.9149 348.806 22.429ZM361.774 37.3973C359.576 35.145 356.86 34.0189 353.642 34.0189C350.423 34.0189 347.801 35.1607 345.587 37.4442C343.389 39.7278 342.29 42.856 342.29 46.7975C342.29 50.739 343.389 53.8672 345.587 56.1507C347.785 58.4343 350.47 59.5761 353.642 59.5761C356.813 59.5761 359.498 58.4187 361.727 56.1038C363.956 53.789 365.071 50.6451 365.071 46.7036C365.071 42.7621 363.972 39.6496 361.774 37.3973Z" fill="#35495E"/>
<path d="M389.5 32.7051C391.51 28.6854 394.257 25.6041 397.727 23.4457C401.197 21.2872 405.075 20.208 409.361 20.208C413.019 20.208 416.222 20.9431 418.985 22.429C421.748 23.9149 423.867 25.8544 425.359 28.2631V20.9431H441.263V72.6518H425.359V65.3319C423.805 67.7406 421.654 69.6801 418.891 71.166C416.127 72.6518 412.925 73.387 409.266 73.387C405.043 73.387 401.212 72.2921 397.727 70.1024C394.257 67.9127 391.51 64.7845 389.5 60.7491C387.491 56.6982 386.47 52.0215 386.47 46.7036C386.47 41.3857 387.475 36.7248 389.5 32.7051ZM422.062 37.4286C419.864 35.145 417.179 34.0033 414.024 34.0033C410.868 34.0033 408.183 35.1294 405.969 37.3817C403.771 39.634 402.672 42.7465 402.672 46.688C402.672 50.6295 403.771 53.7733 405.969 56.0882C408.167 58.403 410.852 59.5604 414.024 59.5604C417.195 59.5604 419.864 58.4187 422.062 56.1351C424.26 53.8515 425.359 50.7233 425.359 46.7818C425.359 42.8403 424.26 39.7122 422.062 37.4286Z" fill="#35495E"/>
<path d="M452.944 32.7051C455.142 28.6854 458.219 25.6041 462.16 23.4457C466.1 21.2872 470.606 20.208 475.693 20.208C482.208 20.208 487.641 21.9129 492.021 25.3069C496.386 28.701 499.259 33.4871 500.625 39.6653H483.7C482.271 35.7081 479.508 33.7374 475.426 33.7374C472.506 33.7374 470.182 34.8635 468.455 37.1158C466.713 39.3681 465.849 42.6057 465.849 46.7975C465.849 50.9892 466.713 54.2269 468.455 56.4792C470.198 58.7315 472.522 59.8576 475.426 59.8576C479.524 59.8576 482.271 57.8869 483.7 53.9297H500.625C499.259 59.9827 496.37 64.7376 491.974 68.1942C487.578 71.6508 482.146 73.387 475.693 73.387C470.606 73.387 466.1 72.3077 462.16 70.1493C458.219 67.9909 455.157 64.894 452.944 60.8899C450.746 56.8702 449.647 52.1779 449.647 46.7975C449.647 41.417 450.746 36.7248 452.944 32.7051Z" fill="#35495E"/>
<path d="M540.801 72.6518L524.991 50.9736V72.6518H509.087V4.08228H524.991V41.9801L540.706 20.9431H560.331L538.744 46.8913L560.504 72.6518H540.785H540.801Z" fill="#35495E"/>
</g>
<defs>
<clipPath id="clip0_26_2">
<rect width="612" height="77" fill="white"/>
</clipPath>
</defs>
</svg>
