<svg width="545" height="62" viewBox="0 0 545 62" fill="none" xmlns="http://www.w3.org/2000/svg">
<g clip-path="url(#clip0_35_22)">
<path d="M536.78 41.51L516.7 29.92L536.78 18.24V10.61L503.47 29.92L536.78 49.23V41.51Z" fill="#41B883"/>
<path d="M544.37 19.3L526.03 29.97L544.37 40.55V34.03L537.32 29.97L544.37 25.83V19.31V19.3Z" fill="#35495E"/>
<path d="M18.01 36.97L25.18 13.39H35.96L24.23 46.45H11.73L0 13.39H10.84L18.01 36.97Z" fill="#35495E"/>
<path d="M61.02 21.74V29.56H41.95V21.74H61.02Z" fill="#35495E"/>
<path d="M89.99 21.8H84.54V46.45H74.41V21.8H70.74V13.39H74.41V12.44C74.41 8.37 75.57 5.28 77.91 3.17C80.24 1.06 83.66 0 88.16 0C88.91 0 89.46 0.02 89.82 0.06V8.65C87.88 8.53 86.52 8.81 85.73 9.48C84.94 10.15 84.55 11.36 84.55 13.09V13.39H90V21.8H89.99Z" fill="#41B883"/>
<path d="M125.72 32.35H102.79C102.95 34.4 103.61 35.97 104.77 37.06C105.93 38.15 107.37 38.69 109.07 38.69C111.6 38.69 113.36 37.62 114.34 35.49H125.12C124.57 37.66 123.57 39.62 122.13 41.36C120.69 43.1 118.88 44.46 116.71 45.45C114.54 46.44 112.11 46.93 109.42 46.93C106.18 46.93 103.3 46.24 100.77 44.86C98.24 43.48 96.27 41.5 94.84 38.94C93.42 36.37 92.71 33.37 92.71 29.93C92.71 26.49 93.41 23.49 94.81 20.92C96.21 18.35 98.18 16.38 100.71 15C103.24 13.62 106.14 12.93 109.42 12.93C112.7 12.93 115.46 13.6 117.95 14.94C120.44 16.28 122.38 18.2 123.79 20.69C125.19 23.18 125.89 26.08 125.89 29.4C125.89 30.35 125.83 31.34 125.71 32.36L125.72 32.35ZM115.53 26.72C115.53 24.98 114.94 23.6 113.75 22.57C112.57 21.54 111.08 21.03 109.31 21.03C107.54 21.03 106.18 21.52 105.01 22.51C103.84 23.5 103.12 24.9 102.85 26.72H115.53Z" fill="#41B883"/>
<path d="M162.21 32.35H139.28C139.44 34.4 140.1 35.97 141.26 37.06C142.42 38.15 143.86 38.69 145.56 38.69C148.09 38.69 149.85 37.62 150.83 35.49H161.61C161.06 37.66 160.06 39.62 158.62 41.36C157.18 43.1 155.37 44.46 153.2 45.45C151.03 46.44 148.6 46.93 145.91 46.93C142.67 46.93 139.79 46.24 137.26 44.86C134.73 43.48 132.76 41.5 131.33 38.94C129.91 36.37 129.2 33.37 129.2 29.93C129.2 26.49 129.9 23.49 131.3 20.92C132.7 18.35 134.67 16.38 137.2 15C139.73 13.62 142.63 12.93 145.91 12.93C149.19 12.93 151.95 13.6 154.44 14.94C156.93 16.28 158.87 18.2 160.28 20.69C161.68 23.18 162.38 26.08 162.38 29.4C162.38 30.35 162.32 31.34 162.2 32.36L162.21 32.35ZM152.02 26.72C152.02 24.98 151.43 23.6 150.24 22.57C149.06 21.54 147.57 21.03 145.8 21.03C144.03 21.03 142.67 21.52 141.5 22.51C140.33 23.5 139.61 24.9 139.34 26.72H152.02Z" fill="#41B883"/>
<path d="M167.64 20.91C168.92 18.34 170.67 16.37 172.88 14.99C175.09 13.61 177.56 12.92 180.29 12.92C182.46 12.92 184.45 13.37 186.24 14.28C188.04 15.19 189.45 16.41 190.48 17.95V2.61H200.61V46.45H190.48V41.71C189.53 43.29 188.18 44.55 186.42 45.5C184.66 46.45 182.62 46.92 180.29 46.92C177.56 46.92 175.1 46.22 172.88 44.82C170.67 43.42 168.92 41.42 167.64 38.84C166.36 36.25 165.71 33.26 165.71 29.86C165.71 26.46 166.35 23.48 167.64 20.91ZM188.38 23.93C186.98 22.47 185.27 21.74 183.26 21.74C181.25 21.74 179.54 22.46 178.14 23.9C176.74 25.34 176.04 27.33 176.04 29.85C176.04 32.37 176.74 34.38 178.14 35.86C179.54 37.34 181.25 38.08 183.26 38.08C185.27 38.08 186.98 37.35 188.38 35.89C189.78 34.43 190.48 32.43 190.48 29.91C190.48 27.39 189.78 25.39 188.38 23.93Z" fill="#41B883"/>
<path d="M222.17 14.34C223.95 13.39 225.98 12.92 228.27 12.92C231 12.92 233.46 13.61 235.68 14.99C237.89 16.37 239.64 18.35 240.92 20.91C242.2 23.48 242.85 26.46 242.85 29.86C242.85 33.26 242.21 36.25 240.92 38.84C239.64 41.43 237.89 43.42 235.68 44.82C233.47 46.22 231 46.92 228.27 46.92C225.94 46.92 223.9 46.46 222.17 45.53C220.43 44.6 219.07 43.37 218.08 41.83V46.45H207.95V2.61H218.08V18.07C219.03 16.53 220.39 15.29 222.17 14.34ZM230.43 23.91C229.03 22.47 227.3 21.75 225.25 21.75C223.2 21.75 221.53 22.48 220.12 23.94C218.72 25.4 218.02 27.4 218.02 29.92C218.02 32.44 218.72 34.44 220.12 35.9C221.52 37.36 223.23 38.09 225.25 38.09C227.27 38.09 228.98 37.35 230.4 35.87C231.82 34.39 232.53 32.38 232.53 29.86C232.53 27.34 231.83 25.35 230.43 23.91Z" fill="#35495E"/>
<path d="M248.09 20.91C249.37 18.34 251.12 16.37 253.33 14.99C255.54 13.61 258.01 12.92 260.74 12.92C263.07 12.92 265.11 13.39 266.87 14.34C268.63 15.29 269.98 16.53 270.93 18.07V13.39H281.06V46.45H270.93V41.77C269.94 43.31 268.57 44.55 266.81 45.5C265.05 46.45 263.01 46.92 260.68 46.92C257.99 46.92 255.55 46.22 253.33 44.82C251.12 43.42 249.37 41.42 248.09 38.84C246.81 36.25 246.16 33.26 246.16 29.86C246.16 26.46 246.8 23.48 248.09 20.91ZM268.83 23.93C267.43 22.47 265.72 21.74 263.71 21.74C261.7 21.74 259.99 22.46 258.58 23.9C257.18 25.34 256.48 27.33 256.48 29.85C256.48 32.37 257.18 34.38 258.58 35.86C259.98 37.34 261.69 38.08 263.71 38.08C265.73 38.08 267.43 37.35 268.83 35.89C270.23 34.43 270.93 32.43 270.93 29.91C270.93 27.39 270.23 25.39 268.83 23.93Z" fill="#35495E"/>
<path d="M288.5 20.91C289.9 18.34 291.86 16.37 294.37 14.99C296.88 13.61 299.75 12.92 302.99 12.92C307.14 12.92 310.6 14.01 313.39 16.18C316.17 18.35 318 21.41 318.87 25.36H308.09C307.18 22.83 305.42 21.57 302.82 21.57C300.96 21.57 299.48 22.29 298.38 23.73C297.27 25.17 296.72 27.24 296.72 29.92C296.72 32.6 297.27 34.67 298.38 36.11C299.49 37.55 300.97 38.27 302.82 38.27C305.43 38.27 307.18 37.01 308.09 34.48H318.87C318 38.35 316.16 41.39 313.36 43.6C310.56 45.81 307.1 46.92 302.99 46.92C299.75 46.92 296.88 46.23 294.37 44.85C291.86 43.47 289.91 41.49 288.5 38.93C287.1 36.36 286.4 33.36 286.4 29.92C286.4 26.48 287.1 23.48 288.5 20.91Z" fill="#35495E"/>
<path d="M344.46 46.45L334.39 32.59V46.45H324.26V2.61H334.39V26.84L344.4 13.39H356.9L343.15 29.98L357.01 46.45H344.45H344.46Z" fill="#35495E"/>
<path d="M374.6 14.34C376.32 13.4 378.34 12.93 380.64 12.93C383.34 12.93 385.78 13.61 387.98 14.98C390.17 16.35 391.9 18.31 393.17 20.85C394.44 23.39 395.08 26.35 395.08 29.71C395.08 33.07 394.44 36.04 393.17 38.6C391.9 41.16 390.17 43.14 387.98 44.53C385.79 45.92 383.34 46.61 380.64 46.61C378.37 46.61 376.37 46.14 374.63 45.2C372.89 44.26 371.53 43.05 370.55 41.56V61.75H360.52V13.4H370.55V18.04C371.53 16.51 372.88 15.28 374.6 14.34ZM382.79 23.82C381.4 22.39 379.69 21.68 377.66 21.68C375.63 21.68 373.97 22.4 372.58 23.85C371.19 25.3 370.5 27.27 370.5 29.78C370.5 32.29 371.19 34.26 372.58 35.71C373.97 37.16 375.66 37.88 377.66 37.88C379.66 37.88 381.36 37.15 382.77 35.68C384.18 34.21 384.88 32.23 384.88 29.72C384.88 27.21 384.18 25.25 382.8 23.82H382.79Z" fill="#35495E"/>
<path d="M400.27 20.86C401.54 18.32 403.27 16.36 405.46 14.99C407.65 13.62 410.1 12.94 412.79 12.94C415.1 12.94 417.12 13.41 418.86 14.35C420.6 15.29 421.94 16.52 422.88 18.05V13.41H432.91V46.15H422.88V41.51C421.9 43.04 420.54 44.27 418.8 45.21C417.06 46.15 415.04 46.62 412.73 46.62C410.07 46.62 407.64 45.93 405.45 44.54C403.26 43.15 401.53 41.18 400.26 38.61C398.99 36.05 398.35 33.09 398.35 29.72C398.35 26.35 398.99 23.4 400.26 20.86H400.27ZM420.81 23.85C419.42 22.4 417.73 21.68 415.73 21.68C413.73 21.68 412.04 22.39 410.65 23.82C409.26 25.25 408.57 27.21 408.57 29.72C408.57 32.23 409.26 34.21 410.65 35.68C412.04 37.15 413.73 37.88 415.73 37.88C417.73 37.88 419.42 37.16 420.81 35.71C422.2 34.26 422.89 32.29 422.89 29.78C422.89 27.27 422.19 25.3 420.81 23.85Z" fill="#35495E"/>
<path d="M440.29 20.86C441.68 18.32 443.61 16.36 446.1 14.99C448.58 13.62 451.43 12.94 454.64 12.94C458.75 12.94 462.18 14.02 464.94 16.17C467.7 18.32 469.51 21.35 470.37 25.27H459.69C458.79 22.77 457.05 21.51 454.47 21.51C452.63 21.51 451.16 22.22 450.07 23.65C448.97 25.08 448.43 27.12 448.43 29.78C448.43 32.44 448.98 34.48 450.07 35.91C451.17 37.34 452.63 38.05 454.47 38.05C457.05 38.05 458.79 36.8 459.69 34.29H470.37C469.51 38.12 467.69 41.14 464.91 43.33C462.13 45.52 458.71 46.62 454.64 46.62C451.43 46.62 448.59 45.94 446.1 44.57C443.62 43.2 441.68 41.25 440.29 38.7C438.9 36.16 438.21 33.18 438.21 29.78C438.21 26.38 438.9 23.4 440.29 20.86Z" fill="#35495E"/>
<path d="M495.72 46.15L485.74 32.42V46.15H475.71V2.72H485.74V26.72L495.66 13.4H508.04L494.43 29.83L508.16 46.14H495.72V46.15Z" fill="#35495E"/>
</g>
<defs>
<clipPath id="clip0_35_22">
<rect width="544.37" height="61.76" fill="white"/>
</clipPath>
</defs>
</svg>
